<?xml version="1.0" encoding="UTF-8"?>
<svg id="Capa_1" data-name="Capa 1" xmlns="http://www.w3.org/2000/svg" viewBox="0 0 611.65 344.05">
  <defs>
    <style>
      .cls-1 {
        fill: #969eaf;
      }

      .cls-2 {
        fill: #3766ae;
      }

      .cls-3 {
        fill: #2961a3;
      }
    </style>
  </defs>
  <g>
    <path class="cls-3" d="M185.98,169.26l-45.11-45.22c-.65-.65-1.54-1.02-2.46-1.02h-10.09c-1.92,0-3.48,1.56-3.48,3.48v91.04c0,1.92,1.56,3.48,3.48,3.48h11.01c.92,0,1.81-.37,2.46-1.02l44.19-44.29c1.78-1.78,1.78-4.68,0-6.46"/>
    <path class="cls-1" d="M207.05,214.47l-.03.03h12.03c1.92,0,3.48-1.56,3.48-3.48v-77.98c0-1.92-1.56-3.48-3.47-3.48h-24.16s-9.44,0-9.44,0c-4.06,0-6.09,4.91-3.22,7.78l32.2,32.22c1.36,1.36,1.36,3.56,0,4.92l-34.04,34.06c-2.19,2.19-.64,5.94,2.46,5.94h24.2Z"/>
  </g>
  <path class="cls-3" d="M270.25,183.31c-3.51,0-6.78-.26-9.82-.78-3.04-.52-5.71-1.41-8-2.67-2.3-1.26-4.1-3.01-5.41-5.26-1.31-2.25-1.96-5.08-1.96-8.49v-.41c0-.17.02-.36.07-.56h15.49c-.05.2-.07.38-.07.56v.48c0,1.48.35,2.62,1.04,3.41.69.79,1.67,1.32,2.93,1.59,1.26.27,2.68.41,4.26.41.59,0,1.22-.01,1.89-.04.67-.02,1.31-.1,1.93-.22.62-.12,1.19-.31,1.7-.56.52-.25.93-.58,1.22-1,.3-.42.45-.95.45-1.59,0-.94-.42-1.68-1.26-2.22-.84-.54-1.98-1.01-3.41-1.41-1.43-.4-3.04-.77-4.82-1.11-1.78-.35-3.63-.75-5.56-1.22-1.93-.47-3.78-1.07-5.56-1.82-1.78-.74-3.38-1.69-4.82-2.85-1.43-1.16-2.57-2.62-3.41-4.37-.84-1.75-1.26-3.87-1.26-6.34,0-2.96.62-5.48,1.85-7.56,1.23-2.08,2.93-3.75,5.08-5.04,2.15-1.28,4.6-2.22,7.34-2.82,2.74-.59,5.62-.89,8.64-.89s5.94.31,8.63.93c2.69.62,5.08,1.57,7.15,2.85,2.08,1.29,3.71,2.92,4.89,4.89,1.19,1.98,1.8,4.32,1.85,7.04v.89h-15.34v-.3c0-.89-.22-1.73-.67-2.52-.44-.79-1.15-1.43-2.11-1.93-.96-.49-2.24-.74-3.82-.74-1.48,0-2.73.15-3.74.44-1.01.3-1.77.7-2.26,1.22-.49.52-.74,1.07-.74,1.67,0,.94.42,1.7,1.26,2.3.84.59,1.98,1.09,3.41,1.48,1.43.4,3.04.77,4.82,1.11,1.78.35,3.63.73,5.56,1.15,1.93.42,3.78.98,5.56,1.67,1.78.69,3.38,1.59,4.82,2.71,1.43,1.11,2.57,2.48,3.41,4.11.84,1.63,1.26,3.63,1.26,6,0,4.2-.98,7.61-2.93,10.23-1.95,2.62-4.62,4.53-8,5.74-3.39,1.21-7.23,1.82-11.53,1.82Z"/>
  <rect class="cls-3" x="299.15" y="130.2" width="14.75" height="9.71"/>
  <rect class="cls-3" x="299.15" y="143.29" width="14.75" height="39.13"/>
  <path class="cls-3" d="M369.19,182.42v-39.13h12.08l.96,5.86h.52c.94-1.48,2.1-2.73,3.48-3.74,1.38-1.01,2.9-1.77,4.56-2.26,1.65-.49,3.35-.74,5.08-.74,3.01,0,5.51.58,7.49,1.74,1.98,1.16,3.43,2.83,4.37,5h.52c.94-1.48,2.09-2.73,3.45-3.74,1.36-1.01,2.85-1.77,4.48-2.26,1.63-.49,3.29-.74,4.97-.74,3.01,0,5.51.58,7.49,1.74,1.98,1.16,3.45,2.83,4.41,5,.96,2.17,1.44,4.82,1.44,7.93v25.35h-14.75v-23.57c0-.84-.1-1.59-.3-2.26-.2-.67-.5-1.25-.89-1.74-.4-.49-.89-.88-1.48-1.15-.59-.27-1.26-.41-2-.41-1.19,0-2.22.29-3.11.85-.89.57-1.57,1.31-2.04,2.22-.47.91-.7,1.94-.7,3.08v22.98h-14.75v-23.57c0-.84-.1-1.59-.3-2.26-.2-.67-.49-1.25-.89-1.74-.4-.49-.89-.88-1.48-1.15-.59-.27-1.26-.41-2-.41-1.19,0-2.21.29-3.08.85-.86.57-1.54,1.31-2.04,2.22-.49.91-.74,1.94-.74,3.08v22.98h-14.75Z"/>
  <path class="cls-3" d="M453.74,183.31c-2.03,0-3.88-.19-5.56-.56-1.68-.37-3.14-.99-4.37-1.85-1.24-.86-2.19-2-2.85-3.41s-1-3.12-1-5.15c0-2.92.6-5.29,1.82-7.12,1.21-1.83,2.98-3.24,5.3-4.22,2.32-.99,5.15-1.67,8.49-2.04,3.33-.37,7.15-.56,11.45-.56v-1.93c0-1.09-.26-1.96-.78-2.63-.52-.67-1.2-1.17-2.04-1.52-.84-.35-1.8-.52-2.89-.52-.84,0-1.71.1-2.59.3-.89.2-1.62.54-2.19,1.04-.57.49-.85,1.19-.85,2.07v.3h-14.53c-.05-.2-.07-.37-.07-.52v-.52c0-2.42.78-4.53,2.33-6.34,1.56-1.8,3.85-3.21,6.89-4.22,3.04-1.01,6.78-1.52,11.23-1.52,3.61,0,6.94.4,10.01,1.19,3.06.79,5.53,2.11,7.41,3.97,1.88,1.85,2.82,4.39,2.82,7.6v15.27c0,.79.2,1.47.59,2.04.39.57.99.85,1.78.85h2.67v8.52c-.59.35-1.57.68-2.93,1-1.36.32-2.95.48-4.78.48-1.98,0-3.71-.2-5.19-.59-1.48-.39-2.68-.96-3.59-1.7-.91-.74-1.55-1.61-1.89-2.59h-.52c-1.04.94-2.24,1.78-3.6,2.52-1.36.74-2.9,1.32-4.63,1.74-1.73.42-3.71.63-5.93.63ZM459.75,174.12c.94,0,1.84-.14,2.71-.41.86-.27,1.64-.64,2.33-1.11.69-.47,1.23-1.04,1.63-1.71.4-.67.59-1.4.59-2.19v-3.34c-2.92,0-5.28.22-7.08.67-1.8.44-3.13,1.04-3.97,1.78-.84.74-1.26,1.61-1.26,2.59s.25,1.75.74,2.3c.49.54,1.12.91,1.89,1.11.77.2,1.57.3,2.41.3Z"/>
  <path class="cls-3" d="M353.09,172.05h-13.34c-1.88,0-3.13-.22-3.74-.67-.62-.45-.93-.99-.93-1.63s.36-1.16,1.07-1.56c.72-.4,1.91-.59,3.59-.59h5.63c2.92,0,5.62-.44,8.12-1.33,2.5-.89,4.51-2.26,6.04-4.11,1.53-1.85,2.3-4.24,2.3-7.15,0-1.63-.41-3.17-1.22-4.63-.81-1.46-1.94-2.73-3.37-3.82,1.88-.49,3.49-1.16,4.85-2,1.36-.84,2.4-1.95,3.11-3.34.63-1.21.96-2.72,1.04-4.5h-12.26c-.18.6-.55,1.33-1.12,2.2-.84,1.29-2.35,2.59-4.52,3.93-.79-.15-1.69-.26-2.71-.33-1.01-.07-2.26-.11-3.74-.11-3.66,0-7.02.38-10.08,1.15-3.06.77-5.51,2.06-7.34,3.89-1.83,1.83-2.74,4.37-2.74,7.63,0,1.88.6,3.62,1.82,5.23,1.21,1.61,2.71,2.98,4.48,4.11-2.08.49-3.84,1.52-5.3,3.08-1.46,1.56-2.19,3.32-2.19,5.3,0,1.38.35,2.67,1.04,3.85.69,1.19,1.63,2.2,2.82,3.04-1.63.74-3.08,1.88-4.34,3.41-1.26,1.53-1.89,3.31-1.89,5.34,0,1.78.44,3.4,1.33,4.85.89,1.46,2.09,2.61,3.59,3.45,1.51.84,3.15,1.26,4.93,1.26h21.79c2.92,0,5.62-.54,8.12-1.63,2.49-1.09,4.51-2.63,6.04-4.63,1.53-2,2.3-4.39,2.3-7.15,0-3.66-1.06-6.66-3.19-9.01-2.13-2.35-5.46-3.52-10.01-3.52ZM337.82,151.29c1.09-.79,2.4-1.19,3.93-1.19,1.73,0,3.11.4,4.15,1.19,1.04.79,1.56,2.03,1.56,3.71s-.52,2.92-1.56,3.71c-1.04.79-2.42,1.19-4.15,1.19-1.14,0-2.12-.17-2.96-.52-.84-.35-1.48-.89-1.93-1.63-.44-.74-.67-1.66-.67-2.74,0-1.68.54-2.91,1.63-3.71ZM351.01,188.02c-.35.57-.82,1-1.41,1.3-.59.3-1.26.44-2,.44h-11.56c-1.09,0-2-.35-2.74-1.04-.74-.69-1.11-1.61-1.11-2.74s.37-2.01,1.11-2.63c.74-.62,1.66-.93,2.74-.93h11.56c1.09,0,2.01.32,2.78.96.77.64,1.15,1.53,1.15,2.67,0,.74-.17,1.4-.52,1.96Z"/>
  <path class="cls-2" d="M247.99,213.06h-2.44v-9.2h2.44v9.2Z"/>
  <path class="cls-2" d="M254.96,213.06l-4.34-6.13.92-.24v6.37h-2.44v-9.2h2.28l4.32,6.13-.92.24v-6.38h2.46v9.2h-2.28Z"/>
  <path class="cls-2" d="M262.69,213.25c-.94,0-1.76-.2-2.46-.6-.71-.4-1.26-.95-1.65-1.65-.39-.7-.59-1.5-.59-2.4,0-.74.11-1.41.34-2.01.22-.6.54-1.11.96-1.55.41-.43.91-.77,1.49-1,.58-.23,1.22-.35,1.92-.35,1.05,0,1.94.23,2.65.69.71.46,1.23,1.15,1.57,2.05l-2.16.97c-.21-.43-.48-.76-.81-.99s-.75-.34-1.24-.34c-.43,0-.81.1-1.15.29-.33.19-.59.48-.78.85-.18.37-.28.84-.28,1.38,0,.49.09.91.28,1.27.18.36.44.64.77.83.33.19.71.29,1.14.29.4,0,.73-.06,1.01-.18.28-.12.5-.3.67-.54.17-.24.28-.54.34-.9l.85.62h-3.08v-2.13h4.47c.04.17.08.36.09.55s.03.4.03.61c0,.67-.12,1.28-.36,1.8s-.57.97-.99,1.33-.88.63-1.4.82c-.52.19-1.06.28-1.62.28Z"/>
  <path class="cls-2" d="M269.33,206.2l.99-1.08v6.86l-1.05-1.26h4.66v2.34h-6.05v-9.2h6.05v2.34h-4.59ZM269.37,209.63v-2.34h3.84v2.34h-3.84Z"/>
  <path class="cls-2" d="M280.77,213.06l-4.34-6.13.92-.24v6.37h-2.44v-9.2h2.28l4.32,6.13-.92.24v-6.38h2.46v9.2h-2.28Z"/>
  <path class="cls-2" d="M286.61,213.06h-2.44v-9.2h2.44v9.2Z"/>
  <path class="cls-2" d="M289.17,206.2l.99-1.08v6.86l-1.05-1.26h4.66v2.34h-6.05v-9.2h6.05v2.34h-4.59ZM289.21,209.63v-2.34h3.84v2.34h-3.84Z"/>
  <path class="cls-2" d="M294.75,213.06v-9.2h3.4c.68,0,1.29.13,1.84.39.55.26.99.63,1.32,1.13s.49,1.12.49,1.86-.16,1.36-.49,1.86c-.33.5-.77.88-1.32,1.13s-1.17.38-1.84.38h-1.54v-2.38h1.46c.41,0,.73-.08.94-.24s.32-.41.32-.74-.11-.57-.32-.74-.52-.26-.94-.26h-1.47l.59-.53v7.35h-2.44ZM299.23,213.06l-1.81-3.67h2.67l1.81,3.67h-2.67Z"/>
  <path class="cls-2" d="M305.1,213.06h-2.44v-9.2h2.44v9.2ZM303.85,203.16l-1.13-1.16,2.23-2.05,1.15,1.15-2.24,2.07Z"/>
  <path class="cls-2" d="M305.45,213.06l3.25-9.2h2.44l2.96,9.2h-2.46l-2.2-7.54h.97l-2.53,7.54h-2.44ZM307.68,209.43h3.85v2.26h-3.85v-2.26Z"/>
  <path class="cls-2" d="M322.54,213.25c-.97,0-1.81-.2-2.51-.61-.7-.41-1.24-.97-1.62-1.68s-.57-1.55-.57-2.49c0-.7.11-1.35.34-1.93.22-.59.54-1.09.96-1.52.41-.43.91-.76,1.49-.99.58-.23,1.22-.34,1.92-.34,1.1,0,2.01.25,2.73.75.72.5,1.24,1.24,1.57,2.22l-2.16.92c-.21-.49-.48-.86-.82-1.12-.34-.26-.78-.39-1.31-.39-.43,0-.81.09-1.15.28-.33.19-.59.46-.78.82-.18.36-.28.79-.28,1.3s.09.94.28,1.3c.18.36.44.63.78.82.33.18.72.28,1.15.28.53,0,.97-.13,1.31-.38.34-.26.62-.63.82-1.11l2.16.92c-.32.98-.85,1.72-1.57,2.22-.72.5-1.63.75-2.73.75Z"/>
  <path class="cls-2" d="M327.1,208.47c0-.7.11-1.35.34-1.93.22-.59.54-1.09.96-1.52.41-.43.91-.76,1.49-.99.58-.23,1.22-.35,1.92-.35s1.34.12,1.93.35c.58.23,1.08.56,1.5.99.42.43.74.93.97,1.52.22.59.34,1.23.34,1.93s-.11,1.35-.34,1.93c-.23.59-.55,1.09-.97,1.52-.42.43-.92.76-1.5.99s-1.22.34-1.93.34-1.34-.12-1.92-.34c-.58-.23-1.07-.56-1.49-.99-.41-.43-.73-.93-.96-1.52-.22-.59-.34-1.23-.34-1.93ZM329.59,208.47c0,.5.09.93.28,1.28.18.35.44.62.78.8.33.18.72.27,1.15.27s.83-.09,1.16-.27c.33-.18.59-.45.78-.8s.28-.79.28-1.29-.09-.93-.28-1.28-.45-.62-.78-.8c-.33-.18-.72-.27-1.16-.27s-.81.09-1.15.28c-.33.18-.59.45-.78.8-.18.35-.28.78-.28,1.28Z"/>
  <path class="cls-2" d="M343.11,213.06l-4.33-6.13.92-.24v6.37h-2.44v-9.2h2.28l4.32,6.13-.92.24v-6.38h2.46v9.2h-2.28Z"/>
  <path class="cls-2" d="M349.93,213.3c-.58,0-1.1-.08-1.57-.25s-.89-.41-1.26-.72c-.36-.32-.67-.7-.91-1.15l1.84-1.2c.23.33.54.6.91.8.37.2.75.3,1.14.3.3,0,.52-.06.67-.18.15-.12.22-.26.22-.43,0-.12-.03-.22-.1-.31s-.2-.18-.4-.26-.49-.17-.86-.25c-.79-.18-1.42-.41-1.89-.68s-.8-.61-1-1c-.2-.39-.3-.84-.3-1.34,0-.56.14-1.06.43-1.52.29-.45.7-.82,1.24-1.09.54-.27,1.17-.41,1.91-.41.83,0,1.53.16,2.12.49.59.33,1.03.75,1.35,1.26l-1.84,1.32c-.21-.28-.48-.48-.83-.6-.35-.12-.68-.18-.99-.18-.28,0-.5.05-.67.16s-.25.24-.25.43.09.32.28.43.55.23,1.1.35c.76.17,1.37.39,1.86.65.48.27.84.59,1.07.99.23.39.34.87.34,1.44s-.14,1.07-.43,1.52c-.29.45-.7.79-1.24,1.05-.54.25-1.18.38-1.93.38Z"/>
  <path class="cls-2" d="M353.72,206.24v-2.38h7.67v2.38h-7.67ZM356.32,213.06v-8.33h2.47v8.33h-2.47Z"/>
  <path class="cls-2" d="M362.07,213.06v-9.2h3.4c.68,0,1.29.13,1.84.39.55.26.99.63,1.32,1.13s.49,1.12.49,1.86-.16,1.36-.49,1.86c-.33.5-.77.88-1.32,1.13s-1.17.38-1.84.38h-1.54v-2.38h1.46c.41,0,.73-.08.94-.24s.32-.41.32-.74-.11-.57-.32-.74-.52-.26-.94-.26h-1.47l.59-.53v7.35h-2.44ZM366.56,213.06l-1.81-3.67h2.67l1.81,3.67h-2.67Z"/>
  <path class="cls-2" d="M373.7,213.25c-.89,0-1.62-.16-2.19-.48s-.99-.8-1.27-1.43-.41-1.42-.41-2.37v-5.1h2.46v5.34c0,.52.12.93.35,1.22.23.29.59.44,1.07.44s.83-.15,1.07-.44c.23-.29.35-.7.35-1.22v-5.34h2.46v5.1c0,.95-.14,1.74-.41,2.37s-.69,1.11-1.26,1.43-1.3.48-2.2.48Z"/>
  <path class="cls-2" d="M382.94,213.25c-.97,0-1.81-.2-2.51-.61-.7-.41-1.24-.97-1.62-1.68s-.57-1.55-.57-2.49c0-.7.11-1.35.34-1.93.22-.59.54-1.09.96-1.52.41-.43.91-.76,1.49-.99.58-.23,1.22-.34,1.92-.34,1.1,0,2.01.25,2.73.75.72.5,1.24,1.24,1.57,2.22l-2.16.92c-.21-.49-.48-.86-.82-1.12-.34-.26-.78-.39-1.31-.39-.43,0-.81.09-1.15.28-.33.19-.59.46-.78.82-.18.36-.28.79-.28,1.3s.09.94.28,1.3c.18.36.44.63.78.82.33.18.72.28,1.15.28.53,0,.97-.13,1.31-.38.34-.26.62-.63.82-1.11l2.16.92c-.32.98-.85,1.72-1.57,2.22-.72.5-1.63.75-2.73.75Z"/>
  <path class="cls-2" d="M392.19,213.25c-.97,0-1.81-.2-2.51-.61-.7-.41-1.24-.97-1.62-1.68s-.57-1.55-.57-2.49c0-.7.11-1.35.34-1.93.22-.59.54-1.09.96-1.52.41-.43.91-.76,1.49-.99.58-.23,1.22-.34,1.92-.34,1.1,0,2.01.25,2.73.75.72.5,1.24,1.24,1.57,2.22l-2.16.92c-.21-.49-.48-.86-.82-1.12-.34-.26-.78-.39-1.31-.39-.43,0-.81.09-1.15.28-.33.19-.59.46-.78.82-.18.36-.28.79-.28,1.3s.09.94.28,1.3c.18.36.44.63.78.82.33.18.72.28,1.15.28.53,0,.97-.13,1.31-.38.34-.26.62-.63.82-1.11l2.16.92c-.32.98-.85,1.72-1.57,2.22s-1.63.75-2.73.75Z"/>
  <path class="cls-2" d="M399.55,213.06h-2.44v-9.2h2.44v9.2Z"/>
  <path class="cls-2" d="M400.3,208.47c0-.7.11-1.35.34-1.93.22-.59.54-1.09.96-1.52.41-.43.91-.76,1.49-.99.58-.23,1.22-.35,1.92-.35s1.34.12,1.92.35c.58.23,1.08.56,1.5.99.42.43.74.93.97,1.52.22.59.34,1.23.34,1.93s-.11,1.35-.34,1.93c-.22.59-.55,1.09-.97,1.52-.42.43-.92.76-1.5.99s-1.22.34-1.92.34-1.34-.12-1.92-.34-1.07-.56-1.49-.99c-.41-.43-.73-.93-.96-1.52-.22-.59-.34-1.23-.34-1.93ZM402.79,208.47c0,.5.09.93.28,1.28.18.35.44.62.78.8.33.18.72.27,1.15.27s.83-.09,1.16-.27c.33-.18.59-.45.78-.8s.28-.79.28-1.29-.1-.93-.28-1.28-.45-.62-.78-.8c-.33-.18-.72-.27-1.16-.27s-.82.09-1.15.28-.59.45-.78.8c-.18.35-.28.78-.28,1.28ZM404.97,203.16l-1.13-1.16,2.23-2.05,1.15,1.15-2.24,2.07Z"/>
  <path class="cls-2" d="M416.31,213.06l-4.34-6.13.92-.24v6.37h-2.44v-9.2h2.28l4.32,6.13-.92.24v-6.38h2.46v9.2h-2.28Z"/>
  <path class="cls-2" d="M427.55,208.32h-1l2.26-4.46h2.58l-3.26,6.38.08-1.11v3.93h-2.44v-3.93l.08,1.11-3.25-6.38h2.7l2.26,4.46Z"/>
  <path class="cls-2" d="M435.07,213.06l1.58-9.2h2.2l1.96,5.97h-.2l1.96-5.97h2.19l1.59,9.2h-2.4l-.55-3.9c-.06-.49-.13-.97-.19-1.46s-.13-.98-.19-1.48h.7c-.13.48-.25.96-.36,1.45s-.24.97-.4,1.44l-1.28,3.89h-1.93l-1.28-3.89c-.16-.48-.3-.96-.41-1.44s-.23-.97-.36-1.45h.72c-.06.5-.12.99-.18,1.48s-.12.98-.2,1.46l-.55,3.9h-2.4Z"/>
  <path class="cls-2" d="M449.47,213.06h-2.44v-9.2h2.44v9.2Z"/>
  <path class="cls-2" d="M456.44,213.06l-4.34-6.13.92-.24v6.37h-2.44v-9.2h2.28l4.32,6.13-.92.24v-6.38h2.46v9.2h-2.28Z"/>
  <path class="cls-2" d="M461.29,206.2l.99-1.08v6.86l-1.05-1.26h4.66v2.34h-6.05v-9.2h6.05v2.34h-4.59ZM461.33,209.63v-2.34h3.84v2.34h-3.84Z"/>
  <path class="cls-2" d="M466.86,213.06v-9.2h3.4c.67,0,1.29.13,1.84.39.55.26.99.63,1.32,1.13s.49,1.12.49,1.86-.16,1.36-.49,1.86c-.33.5-.77.88-1.32,1.13s-1.17.38-1.84.38h-1.54v-2.38h1.46c.41,0,.73-.08.94-.24.21-.16.32-.41.32-.74s-.11-.57-.32-.74c-.21-.17-.52-.26-.94-.26h-1.47l.59-.53v7.35h-2.44ZM471.35,213.06l-1.81-3.67h2.67l1.81,3.67h-2.67Z"/>
  <path class="cls-2" d="M477.21,213.06h-2.44v-9.2h2.44v9.2ZM475.97,203.16l-1.13-1.16,2.23-2.05,1.15,1.15-2.24,2.07Z"/>
  <path class="cls-2" d="M477.56,213.06l3.25-9.2h2.44l2.96,9.2h-2.46l-2.2-7.54h.97l-2.52,7.54h-2.44ZM479.79,209.43h3.85v2.26h-3.85v-2.26Z"/>
</svg>