<?xml version="1.0" encoding="iso-8859-1"?>
<!-- Generator: Adobe Illustrator 23.0.1, SVG Export Plug-In . SVG Version: 6.00 Build 0)  -->
<svg version="1.1" id="&#xD1;&#xEB;&#xEE;&#xE9;_1" xmlns="http://www.w3.org/2000/svg" xmlns:xlink="http://www.w3.org/1999/xlink"
	 x="0px" y="0px" viewBox="244 244 512 512" style="enable-background:new 244 244 512 512;" xml:space="preserve">
<g id="XMLID_19_">
	<path id="XMLID_21_" style="fill:#231F20;" d="M323.297,503.051l-4.38-1.338c-0.852-0.243-1.338-0.608-1.217-0.851
		c0.122-0.244,0.73-0.487,1.825-0.487h19.221c1.095,0,1.582,0.121,1.582,0.487c0,0.243-0.243,0.486-0.852,0.73l-3.771,1.338
		c-1.703,0.608-2.555,1.825-2.555,3.407c0,5.109,0.365,10.097,0.973,15.207c-7.543,4.258-15.815,6.447-24.817,6.447
		c-6.448,0-12.165-1.217-17.153-3.65c-9.976-5.109-15.693-13.747-17.032-26.156C275,496.847,275,495.509,275,494.049
		c0-10.097,3.285-18.005,10.097-23.601c7.664-6.448,16.91-9.732,27.737-9.732c6.326,0,13.017,1.095,20.195,3.284l-1.338,15.572
		c0,0.851-0.243,1.338-0.73,1.217c-0.365,0-0.608-0.608-0.852-1.46l-1.703-7.664c-0.243-1.217-0.608-1.947-0.973-2.555
		c-0.365-0.486-1.338-1.095-2.676-1.703c-3.285-1.46-7.299-2.311-12.044-2.311c-7.299,0-13.626,1.703-18.978,5.109
		c-7.664,4.988-11.314,13.017-11.071,24.209c0.122,5.11,1.095,9.611,2.798,13.747c2.19,5.231,5.474,9.002,9.732,11.314
		c4.866,2.677,9.732,4.015,14.477,4.015c4.258,0,8.516-1.095,12.652-3.163c2.555-1.338,3.893-3.163,3.893-5.474
		c0.122-4.988-0.121-8.516-0.973-10.584C325,503.903,324.392,503.417,323.297,503.051"/>
	<path id="XMLID_25_" style="fill:#231F20;" d="M348.114,472.03c0-2.433,0-3.771-0.121-4.136c-0.122-1.095-0.73-1.825-1.46-2.068
		l-4.866-1.46c-0.973-0.244-1.46-0.608-1.46-0.974c0-0.243,0.608-0.487,1.703-0.487h19.951c1.217,0,1.703,0.122,1.703,0.487
		c0,0.365-0.487,0.73-1.46,0.974l-4.866,1.46c-0.852,0.244-1.338,0.852-1.582,2.068c-0.121,0.365-0.121,1.825-0.121,4.136
		c-0.122,5.596-0.243,13.017-0.243,22.384c0,9.246,0.121,17.397,0.243,24.574c0,1.46,0.73,2.311,2.068,2.311h14.599
		c1.338,0,2.311-0.122,2.92-0.365c0.608-0.244,0.973-0.73,1.217-1.582l2.433-6.326c0.244-0.852,0.608-1.217,0.974-1.217
		c0.243,0,0.487,0.243,0.487,0.608l-0.487,13.504h-37.956c-1.217,0-1.703-0.122-1.703-0.487c0-0.365,0.487-0.608,1.46-0.973
		l4.866-1.46c0.852-0.243,1.338-0.851,1.46-1.825c0.122-0.487,0.122-1.946,0.122-4.379c0.121-5.596,0.243-13.139,0.243-22.385
		C348.357,485.169,348.236,477.748,348.114,472.03"/>
	<path id="XMLID_26_" style="fill:#231F20;" d="M426.338,526.044h-42.214c-1.217,0-1.703-0.121-1.703-0.487
		c0-0.365,0.486-0.73,1.46-0.973l4.866-1.46c0.851-0.243,1.338-0.851,1.46-1.825c0.122-0.487,0.122-1.947,0.122-4.38
		c0.122-6.083,0.244-13.503,0.244-22.384c0-9.124-0.122-16.545-0.244-22.384c0-2.433,0-3.771-0.122-4.136
		c-0.121-1.095-0.729-1.825-1.46-1.947l-4.866-1.46c-0.974-0.243-1.46-0.608-1.46-0.973c0-0.244,0.608-0.486,1.703-0.486
		c10.098,0,18.248,0,24.696-0.122c6.083-0.122,11.192-0.365,15.329-0.73v11.801c0,1.095-0.122,1.703-0.487,1.703
		c-0.243,0-0.486-0.365-0.851-1.338c-1.46-3.893-2.555-6.083-3.285-6.569c-0.73-0.487-3.284-0.73-7.908-0.73h-11.922
		c-0.974,0-1.46,0.122-1.703,0.365c-0.244,0.243-0.365,0.851-0.365,1.825l-0.243,21.898h17.032c1.095,0,1.825-0.122,2.311-0.365
		c0.365-0.243,0.851-0.851,1.338-1.825c0.365-0.851,0.851-1.825,1.217-3.163c0.121-0.487,0.365-0.729,0.729-0.608
		c0.365,0,0.487,0.244,0.487,0.608v16.667c0,1.217-0.122,1.825-0.487,1.947c-0.365,0.122-0.729-0.122-0.973-1.095
		c-0.487-1.704-0.973-3.65-1.703-5.718c-0.365-1.338-1.338-2.068-2.92-2.068h-17.032l0.243,23.358c0,1.46,0.608,2.311,1.947,2.311
		h18.978c1.338,0,2.311-0.122,2.92-0.365c0.608-0.244,0.973-0.73,1.338-1.46c0.365-0.73,1.095-2.92,2.433-6.447
		c0.243-0.852,0.608-1.217,1.095-1.217c0.244,0,0.486,0.244,0.486,0.608L426.338,526.044z"/>
	<path id="XMLID_27_" style="fill:#231F20;" d="M494.343,527.139h-4.744c-2.068-2.677-5.961-7.299-11.922-13.99
		c-8.516-9.246-20.681-22.263-36.618-39.051c-0.122,4.866-0.122,11.679-0.122,20.438c0,9.124,0.122,16.545,0.244,22.384
		c0,2.433,0,3.771,0.121,4.258c0.122,1.095,0.73,1.704,1.46,1.947l4.988,1.46c0.973,0.244,1.338,0.608,1.338,0.973
		c0,0.244-0.608,0.487-1.704,0.487h-17.883c-1.217,0-1.703-0.121-1.703-0.487c0-0.365,0.486-0.73,1.459-0.973l4.866-1.46
		c0.852-0.243,1.338-0.851,1.46-1.947c0.122-0.365,0.122-1.825,0.122-4.258c0.121-5.839,0.243-13.382,0.243-22.384
		c0-8.759-0.122-16.302-0.243-22.384c0-2.19-0.122-5.839-0.487-10.705h4.501c2.068,2.676,6.447,7.786,13.138,15.328l35.402,37.835
		c0.122-4.258,0.122-10.949,0.122-20.073c0-8.759-0.122-16.302-0.244-22.384c0-2.433,0-3.771-0.121-4.136
		c-0.122-1.095-0.73-1.825-1.582-1.947l-4.866-1.46c-0.973-0.243-1.46-0.608-1.46-0.973c0-0.244,0.608-0.486,1.703-0.486h17.883
		c1.095,0,1.704,0.122,1.704,0.486c0,0.365-0.487,0.73-1.338,0.973l-4.988,1.46c-0.852,0.244-1.338,0.852-1.46,1.947
		c-0.121,0.486-0.121,1.947-0.121,4.258c-0.122,6.205-0.244,13.625-0.244,22.384c0,9.124,0.122,16.545,0.244,22.384
		C493.735,519.11,493.978,522.516,494.343,527.139"/>
	<path id="XMLID_28_" style="fill:#231F20;" d="M512.591,521.178c-9.489-6.934-13.99-16.18-13.382-27.859
		c0.244-5.109,1.703-9.975,4.258-14.355c2.92-5.11,7.056-9.246,12.531-12.531c6.083-3.771,13.382-5.596,21.898-5.596
		c5.839,0,11.557,0.851,17.153,2.676v14.72c0,0.852-0.121,1.338-0.486,1.338c-0.365,0-0.73-0.608-1.095-1.947
		c-0.852-3.406-1.825-5.839-2.798-7.299c-1.338-2.068-3.407-3.406-6.326-4.136c-2.19-0.487-4.501-0.73-7.177-0.73
		c-9.489,0-17.153,2.798-22.75,8.516c-4.866,5.11-7.299,12.044-7.299,21.046c0,2.798,0.244,5.353,0.852,7.665
		c2.798,10.462,9.367,17.032,19.708,19.951c2.068,0.608,4.501,0.852,7.299,0.852c7.786,0,13.626-1.825,17.397-5.353
		c1.095-1.095,2.311-2.798,3.528-5.109c0.122-0.244,0.608-1.338,1.338-3.285c0.487-1.338,0.973-1.947,1.338-1.947
		c0.243,0,0.365,0.122,0.365,0.487l-2.433,15.45c-7.664,2.798-14.72,4.136-20.925,4.136
		C526.46,528.112,518.917,525.801,512.591,521.178"/>
	<path id="XMLID_31_" style="fill:#231F20;" d="M586.557,466.92c2.19-0.487,4.501-0.73,6.691-0.73
		c7.664,0,14.355,2.798,20.194,8.272c2.677,2.555,4.745,5.84,6.326,9.976c1.338,3.771,1.947,7.664,1.947,11.8
		c0,2.798-0.365,5.353-1.095,7.786c-2.677,9.732-9.124,15.815-19.222,18.248c-2.068,0.487-4.136,0.729-6.447,0.729
		c-8.151,0-14.963-2.798-20.195-8.394c-5.353-5.596-7.908-12.652-7.908-21.046c0-3.041,0.365-5.84,1.217-8.516
		C571.107,475.193,577.19,469.232,586.557,466.92 M577.554,465.217c-10.705,5.353-16.788,13.626-18.248,25.183
		c-0.121,1.095-0.121,2.311-0.121,3.528c0,4.623,0.851,9.124,2.554,13.504c1.947,5.353,4.866,9.611,8.759,12.895
		c6.447,5.474,13.626,8.151,21.776,8.151c3.893,0,8.029-0.608,12.287-1.946c5.718-1.582,10.584-4.38,14.72-8.151
		c4.38-4.136,7.299-9.002,8.759-14.599c0.73-2.798,1.095-5.839,1.095-9.002c0-8.759-2.312-15.937-6.935-21.655
		c-6.569-8.029-15.207-11.922-26.034-11.922c-1.825,0-3.771,0.122-5.596,0.365C585.584,462.175,581.326,463.392,577.554,465.217"/>
	<path id="XMLID_34_" style="fill:#231F20;" d="M644.464,494.414c-0.851,0-1.703,0-2.554-0.121l-0.122-18.005v-4.136
		c0-1.581,0.122-2.433,0.122-2.433c0-0.973,0.608-1.581,1.703-2.068c0.851-0.365,2.068-0.486,3.528-0.486
		c3.528,0,6.447,0.73,8.88,2.311c4.501,2.798,6.57,6.691,6.326,11.801c-0.244,5.231-2.798,8.881-7.664,11.314
		C651.885,493.684,648.479,494.414,644.464,494.414 M626.46,463.635c0,0.365,0.486,0.73,1.46,0.973l4.866,1.46
		c0.851,0.244,1.338,0.852,1.46,1.947c0.122,0.365,0.122,1.825,0.122,4.136c0.122,6.204,0.244,13.626,0.244,22.384
		c0,9.124-0.122,16.545-0.244,22.384c0,2.433-0.122,3.893-0.122,4.258c-0.122,1.095-0.608,1.704-1.46,1.947l-4.866,1.46
		c-0.974,0.243-1.46,0.608-1.46,0.973c0,0.244,0.608,0.487,1.703,0.487h19.951c1.217,0,1.704-0.121,1.704-0.487
		c0-0.365-0.487-0.73-1.46-0.973l-4.866-1.46c-0.852-0.243-1.338-0.851-1.581-2.068c-0.122-0.487-0.122-1.947-0.122-4.137v-18.126
		c1.338,0.122,2.068,0.122,2.311,0l18.37,19.1c6.326,6.569,17.883,16.058,21.776,17.883c5.596,2.555,17.275,5.84,25.061,1.095
		c0.487-0.365-8.273-0.608-11.314-1.095c-3.406-0.486-8.029-2.554-8.637-2.798c-5.718-2.677-13.139-9.368-16.91-13.26
		l-19.099-21.655c6.813-1.581,11.557-4.623,14.233-8.881c1.582-2.677,2.433-5.839,2.433-9.246c0-3.163-0.608-5.839-1.946-8.15
		c-2.555-4.137-5.84-6.935-10.098-8.151c-2.433-0.73-6.326-0.973-11.922-0.852l-17.883,0.365
		C627.068,463.149,626.46,463.392,626.46,463.635"/>
	<path id="XMLID_36_" style="fill:#231F20;" d="M724.513,526.044h-42.214c-1.217,0-1.703-0.121-1.703-0.487
		c0-0.365,0.487-0.73,1.46-0.973l4.866-1.46c0.851-0.243,1.338-0.851,1.459-1.825c0.122-0.487,0.122-1.947,0.122-4.38
		c0.122-6.083,0.244-13.503,0.244-22.384c0-9.124-0.122-16.545-0.244-22.384c0-2.433,0-3.771-0.122-4.136
		c-0.122-1.095-0.73-1.825-1.459-1.947l-4.866-1.46c-0.974-0.243-1.46-0.608-1.46-0.973c0-0.244,0.608-0.486,1.703-0.486
		c10.098,0,18.248,0,24.696-0.122c6.083-0.122,11.192-0.365,15.328-0.73v11.801c0,1.095-0.121,1.703-0.487,1.703
		c-0.243,0-0.487-0.365-0.851-1.338c-1.46-3.893-2.555-6.083-3.285-6.569c-0.73-0.487-3.285-0.73-7.908-0.73h-11.922
		c-0.974,0-1.46,0.122-1.704,0.365c-0.243,0.243-0.365,0.851-0.365,1.825l-0.244,21.898h17.032c1.095,0,1.825-0.122,2.312-0.365
		c0.365-0.243,0.851-0.851,1.338-1.825c0.365-0.851,0.852-1.825,1.217-3.163c0.122-0.487,0.365-0.729,0.73-0.608
		c0.365,0,0.487,0.244,0.487,0.608v16.667c0,1.217-0.121,1.825-0.487,1.947c-0.365,0.122-0.73-0.122-0.973-1.095
		c-0.487-1.704-0.974-3.65-1.703-5.718c-0.365-1.338-1.338-2.068-2.92-2.068h-17.032l0.244,23.358c0,1.46,0.73,2.311,1.947,2.311
		h18.978c1.338,0,2.433-0.122,2.92-0.365c0.608-0.244,0.973-0.73,1.338-1.46c0.365-0.73,1.095-2.92,2.433-6.447
		c0.243-0.852,0.608-1.217,1.095-1.217c0.243,0,0.487,0.244,0.487,0.608L724.513,526.044z"/>
</g>
</svg>
