<svg width="24" height="17" viewBox="0 0 24 17" fill="none" xmlns="http://www.w3.org/2000/svg">
<path d="M11.9784 13.6501C9.05364 13.6501 6.12887 13.6501 3.20591 13.6501C2.01654 13.6501 1.64531 13.2963 1.64712 12.167C1.64712 11.0096 1.64171 9.85211 1.65072 8.69653C1.65613 8.11497 2.02916 7.65199 2.53734 7.56541C2.72476 7.53342 2.92659 7.52024 2.98966 7.74421C3.04733 7.95312 2.87433 8.02463 2.70493 8.06416C2.30667 8.15261 2.18954 8.4161 2.19134 8.77934C2.19675 9.9688 2.18774 11.1583 2.19495 12.3477C2.19855 12.9387 2.38416 13.1212 3.00768 13.125C4.5034 13.1344 5.99912 13.1288 7.49484 13.1288C11.8649 13.1288 16.2349 13.1288 20.6049 13.1288C20.805 13.1288 21.005 13.1344 21.2032 13.1156C21.5889 13.078 21.8105 12.8785 21.8105 12.487C21.8123 11.2166 21.8213 9.9481 21.8069 8.67771C21.8015 8.21284 21.5907 8.0698 20.9942 8.06792C18.6677 8.06416 16.3412 8.06604 14.0147 8.06604C13.8147 8.06604 13.6147 8.06604 13.4183 8.0491C13.2615 8.03404 13.1137 7.97194 13.1245 7.7875C13.1353 7.60494 13.2813 7.55788 13.4417 7.54847C13.5408 7.54283 13.6417 7.54283 13.7408 7.54283C16.1664 7.54283 18.592 7.54095 21.0194 7.54283C21.9439 7.54471 22.3583 7.94559 22.3601 8.83957C22.3637 10.0121 22.3637 11.1865 22.3601 12.359C22.3583 13.2304 21.9258 13.6501 21.005 13.652C17.9919 13.6539 14.9861 13.6501 11.9784 13.6501Z" fill="#201D93"/>
<path d="M12.092 7.1718C12.092 8.42337 12.092 9.67682 12.092 10.9284C12.092 11.6285 11.7964 11.9334 11.0738 11.9353C9.03204 11.9409 6.99029 11.9409 4.94854 11.9353C4.29439 11.9334 3.96101 11.6266 3.9574 10.9886C3.94479 9.04633 3.9538 7.10404 3.9502 5.16176C3.9502 4.91898 4.02949 4.72889 4.2133 4.56515C4.97377 3.89325 5.73244 3.22136 6.48391 2.54382C6.65691 2.38761 6.85514 2.34997 7.07859 2.34997C8.40672 2.35185 9.73485 2.34056 11.0612 2.35561C11.791 2.36314 12.0992 2.70944 12.0956 3.41709C12.0884 4.66866 12.0938 5.92211 12.0938 7.17368C12.0956 7.1718 12.0938 7.1718 12.092 7.1718ZM11.5459 7.17556C11.5459 5.93905 11.5405 4.70066 11.5495 3.46414C11.5531 3.06891 11.409 2.86565 10.9711 2.8713C9.85739 2.88259 8.74551 2.88447 7.63183 2.86941C7.27502 2.86565 7.16509 3.01245 7.17771 3.3324C7.19393 3.71822 7.18852 4.10404 7.17771 4.48987C7.16149 5.03378 6.94884 5.24081 6.38119 5.25586C5.91626 5.26904 5.44952 5.27468 4.98639 5.25586C4.61876 5.24081 4.49262 5.38196 4.49442 5.73579C4.50704 7.42211 4.51064 9.11032 4.49442 10.7966C4.48902 11.2596 4.68184 11.4234 5.14497 11.4196C7.07138 11.4083 8.9996 11.4045 10.926 11.4215C11.4144 11.4252 11.5603 11.237 11.5531 10.791C11.5333 9.58648 11.5459 8.38008 11.5459 7.17556ZM4.9972 4.72512C5.44952 4.72512 5.90364 4.73077 6.35596 4.72324C6.53076 4.71948 6.62627 4.6122 6.62807 4.44281C6.63168 4.05135 6.62988 3.65988 6.62988 3.16866C5.96131 3.64294 5.49277 4.16427 4.9972 4.72512Z" fill="#201D93"/>
<path d="M15.8402 10.5728C15.8402 10.4919 15.8186 10.4053 15.8438 10.3338C15.9646 9.98374 15.5303 9.41159 16.1826 9.28926C17.2603 9.08599 18.0514 9.4417 18.2784 10.1362C18.5487 10.9643 18.1018 11.6983 17.226 11.8714C15.9339 12.1255 15.8402 12.0371 15.8402 10.5728ZM16.8566 11.4028C17.4423 11.4066 17.7594 11.1487 17.8009 10.6594C17.8423 10.1644 17.5936 9.87081 17.044 9.76918C16.5196 9.67132 16.4421 9.73342 16.4349 10.266C16.4313 10.5069 16.4421 10.7479 16.4349 10.9869C16.4241 11.2955 16.5647 11.4386 16.8566 11.4028Z" fill="#201D93"/>
<path d="M14.0201 9.27194C14.1337 9.27194 14.2003 9.27006 14.2652 9.27194C15.0419 9.29076 15.4402 9.61448 15.4348 10.2224C15.4294 10.8115 15.0599 11.1277 14.2905 11.1502C13.9571 11.1596 13.7336 11.2086 13.7841 11.5982C13.8039 11.7525 13.7624 11.8918 13.5588 11.9031C13.3732 11.9144 13.2705 11.8127 13.2687 11.6471C13.2633 10.9413 13.22 10.2337 13.2885 9.53355C13.3317 9.07056 13.8003 9.35664 14.0201 9.27194ZM14.231 10.6496C14.5626 10.6534 14.8311 10.6082 14.8383 10.2261C14.8455 9.79515 14.5247 9.75563 14.1985 9.72364C13.8021 9.68411 13.7913 9.93066 13.7805 10.213C13.7678 10.5517 13.9156 10.6891 14.231 10.6496Z" fill="#201D93"/>
<path d="M19.8174 9.27194C19.9994 9.27194 20.1815 9.27006 20.3635 9.27194C20.522 9.27382 20.6662 9.29452 20.6644 9.49967C20.6608 9.68599 20.5365 9.74998 20.3743 9.75939C20.1436 9.77445 19.9111 9.77257 19.6805 9.78198C19.4895 9.78951 19.3687 9.86855 19.3705 10.0756C19.3723 10.292 19.5129 10.3409 19.6985 10.3466C19.8805 10.3504 20.0625 10.3485 20.2445 10.3616C20.4085 10.3729 20.5347 10.4388 20.522 10.627C20.5112 10.7889 20.3941 10.8378 20.2517 10.851C20.1688 10.8585 20.0841 10.8698 20.0049 10.8585C19.5147 10.7908 19.2894 10.9658 19.3561 11.4645C19.3795 11.6452 19.3958 11.8899 19.0984 11.888C18.8101 11.888 18.8299 11.6527 18.8263 11.4645C18.8191 10.9376 18.8497 10.4068 18.8155 9.88173C18.783 9.39239 18.9759 9.19854 19.4732 9.26441C19.5868 9.27947 19.7039 9.26629 19.821 9.26629C19.8174 9.27006 19.8174 9.27194 19.8174 9.27194Z" fill="#201D93"/>
<path d="M8.54544 9.68625C8.8554 9.33618 9.13472 9.00494 9.43206 8.68876C9.56722 8.54572 9.75283 8.39516 9.93844 8.59465C10.106 8.77345 9.93124 8.91837 9.80329 9.04258C9.34917 9.48675 8.88423 9.92339 8.43371 10.3732C8.21927 10.5878 8.03005 10.6141 7.80299 10.3883C7.293 9.88198 6.7722 9.38888 6.25861 8.88637C6.11985 8.75086 5.94145 8.58901 6.1631 8.40268C6.35412 8.24083 6.5055 8.40645 6.62804 8.53066C6.98304 8.88637 7.32904 9.25149 7.68045 9.61473C7.9021 9.42276 7.83182 9.25337 7.83362 9.10657C7.84083 7.98299 7.83723 6.86128 7.83723 5.73769C7.83723 5.60971 7.83723 5.47985 7.84804 5.35375C7.86065 5.2013 7.91291 5.05074 8.09673 5.04321C8.31297 5.03568 8.35983 5.20507 8.37424 5.37257C8.38506 5.50055 8.38325 5.62853 8.38325 5.75651C8.38325 6.86316 8.38145 7.96981 8.38686 9.07834C8.38686 9.23455 8.3364 9.39829 8.54544 9.68625Z" fill="#201D93"/>
</svg>
