<svg width="211" height="170" viewBox="0 0 211 170" fill="none" xmlns="http://www.w3.org/2000/svg">
<path d="M135.12 163.5C157.42 163.5 179.72 163.5 202.03 163.5C203.317 163.5 203.963 162.86 203.97 161.58C203.97 159.86 203.97 158.15 203.97 156.43C203.97 156.14 204.07 155.77 203.74 155.62C203.4 155.46 203.2 155.79 202.98 155.98C201.5 157.24 199.78 157.71 197.85 157.66C194.38 157.57 190.91 157.66 187.44 157.44C184.42 157.25 182.47 155.46 182.37 152.42C182.31 150.53 182.31 148.65 182.37 146.76C182.4 145.69 181.96 145.27 180.93 145.33C178.62 145.47 176.31 145.55 173.99 145.55C127.46 145.54 80.92 145.55 34.39 145.53C32.76 145.53 31.14 145.42 29.51 145.31C28.41 145.23 27.96 145.61 28 146.76C28.07 148.6 28.04 150.45 28.01 152.29C27.96 155.57 26.15 157.35 22.92 157.43C19.41 157.51 15.91 157.82 12.39 157.48C10.7 157.32 9.06999 157.16 7.56999 156.32C6.82999 155.9 6.36999 155.91 6.38999 156.95C6.41999 158.75 6.40999 160.55 6.38999 162.35C6.38999 163.27 6.84999 163.49 7.68999 163.49C21.87 163.49 36.06 163.51 50.24 163.54C51.53 163.54 52.79 163.91 53.99 164.39C55.18 164.87 55.49 165.68 55 166.87C54.04 169.25 52.96 169.98 50.41 169.99C36 169.99 21.59 170.01 7.17999 170.01C6.49999 170.01 5.79999 169.99 5.12999 169.87C1.85999 169.33 0.0299866 167.35 0.209987 164.03C0.579987 157.26 0.269986 150.48 0.419986 143.71C0.469986 141.42 1.48999 140.09 3.83999 139.29C6.26999 138.46 6.09999 138.81 6.09999 136.06C6.09999 115.73 6.09999 95.4 6.09999 75.07C6.09999 73.1 6.15999 71.13 6.34999 69.17C6.59999 66.53 8.09999 64.55 10.14 62.99C14.02 60.02 18.12 57.35 22.16 54.59C31.34 48.33 40.5 42.06 49.69 35.83C58.03 30.18 66.45 24.65 74.76 18.97C82.72 13.52 90.6 7.96003 98.85 2.95003C101.65 1.25003 104.51 -0.10997 107.95 0.89003C109.85 1.44003 111.47 2.47003 113.07 3.53003C118.58 7.18003 124.04 10.88 129.53 14.56C130.26 15.05 130.86 15.64 131.29 16.4C132.25 18.12 131.12 20.58 129.18 20.95C128.66 21.05 128.08 21.09 127.72 20.66C126.14 18.77 123.81 18.08 121.8 16.89C118.11 14.69 114.7 12.07 111.24 9.56003C106.69 6.25003 103.52 6.77003 99.31 9.58003C92.35 14.22 85.51 19.02 78.58 23.71C70.02 29.51 61.32 35.09 52.9 41.08C45.04 46.67 37.18 52.26 29.23 57.71C24.7 60.81 20.02 63.69 15.42 66.67C13.3 68.04 12.31 70.11 12.31 72.53C12.28 97.88 12.31 123.22 12.31 148.57C12.31 148.96 12.32 149.34 12.33 149.73C12.33 150.51 12.71 150.91 13.52 150.9C15.96 150.89 18.41 150.89 20.85 150.9C21.59 150.9 21.96 150.53 21.98 149.81C22 149.3 22 148.78 22 148.27C22 124.77 22.03 101.26 21.98 77.76C21.98 75.26 22.89 73.52 24.91 72.15C34.03 65.97 43.15 59.78 52.22 53.53C64.72 44.91 77.28 36.4 89.89 27.94C93.91 25.24 97.95 22.57 101.9 19.76C104.54 17.88 105.97 17.99 108.83 19.94C115.85 24.72 122.85 29.52 129.88 34.28C141.07 41.85 152.28 49.38 163.47 56.95C170.75 61.88 177.96 66.9 185.27 71.78C187.8 73.47 188.76 75.78 188.79 78.65C188.81 80.84 188.81 83.02 188.81 85.21C188.81 103.65 188.81 122.09 188.81 140.54C188.81 143.63 188.49 146.7 188.56 149.79C188.58 150.85 188.93 151.19 189.99 151.21C192.17 151.25 194.35 151.49 196.54 151.45C198.19 151.41 198.31 151.34 198.31 149.71C198.31 141.56 198.31 133.41 198.31 125.26C198.31 108.1 198.27 90.95 198.35 73.79C198.37 70.47 197.04 68.14 194.4 66.36C184.6 59.72 174.79 53.11 165.03 46.42C159.94 42.93 155.12 39.05 149.93 35.7C147.66 34.23 145.39 32.77 143.06 31.4C141.35 30.39 139.84 29.12 138.3 27.9C137.15 26.98 137 25.8 137.73 24.44C138.43 23.13 139.74 22.52 141.07 22.93C141.97 23.21 142.78 23.71 143.56 24.25C148.56 27.65 153.39 31.31 158.45 34.6C163.66 37.99 168.81 41.46 173.97 44.93C182.16 50.42 190.28 56.02 198.43 61.57C200.81 63.19 202.37 65.47 203.68 67.96C204.24 69.02 204.11 70.24 204.19 71.37C204.45 75.26 204.83 79.14 204.82 83.05C204.78 101.06 204.8 119.08 204.76 137.09C204.76 138.28 205.05 138.8 206.27 139.1C209.31 139.86 210.42 141.43 210.43 144.57C210.43 151.26 210.33 157.95 210.48 164.64C210.55 167.53 208.05 169.51 205.99 169.73C204.67 169.87 203.34 170 202.02 170C158.4 170.01 114.79 170.01 71.17 170C69.46 170 67.74 169.88 66.04 169.75C64.18 169.61 63.04 168.44 62.99 166.72C62.95 165.07 63.99 164.06 65.91 163.78C67.19 163.59 68.47 163.54 69.76 163.54C91.55 163.54 113.33 163.54 135.12 163.54V163.52V163.5ZM106.22 66.58C87.27 66.58 68.31 66.56 49.36 66.58C46.82 66.58 44.28 66.77 42.03 68.14C38.4 70.35 34.95 72.81 31.53 75.34C31.3 75.51 30.95 75.67 31.08 76.03C31.21 76.39 31.59 76.33 31.87 76.29C33.32 76.06 34.78 76.27 36.23 76.27C53.3 76.27 70.36 76.28 87.43 76.27C88.47 76.27 89.5 76.33 90.48 76.64C91.66 77.01 92.46 77.8 92.7 79.07C92.93 80.29 92.33 81.12 91.48 81.85C90.63 82.58 89.58 82.9 88.51 82.95C87.41 83 87.17 83.52 87.17 84.5C87.2 89 87.2 93.51 87.17 98.01C87.17 99.03 87.46 99.46 88.56 99.46C99.92 99.43 111.29 99.43 122.65 99.46C123.82 99.46 124.24 99.05 124.22 97.88C124.18 93.38 124.17 88.87 124.22 84.37C124.24 83.14 123.83 82.74 122.59 82.76C117.02 82.81 111.44 82.77 105.87 82.79C104.74 82.79 103.64 82.67 102.57 82.35C100.81 81.82 100.21 80.36 100.97 78.73C101.7 77.17 102.93 76.39 104.61 76.3C105.47 76.26 106.32 76.27 107.18 76.27C130.85 76.27 154.52 76.28 178.19 76.27C178.63 76.27 179.3 76.52 179.47 76.01C179.64 75.48 178.93 75.34 178.57 75.09C175.32 72.85 172.02 70.69 168.82 68.38C166.98 67.05 165.02 66.56 162.8 66.56C143.93 66.58 125.06 66.57 106.2 66.57L106.22 66.58ZM105.48 138.56C111.1 138.55 116.71 138.52 122.33 138.56C123.58 138.57 123.97 138.12 123.95 136.91C123.9 132.49 123.95 128.08 123.95 123.66C123.95 121.99 123.86 121.9 122.22 121.89C111.16 121.89 100.1 121.89 89.03 121.89C87.27 121.89 87.2 121.96 87.19 123.68C87.19 128.1 87.19 132.51 87.19 136.93C87.19 138.5 87.26 138.55 88.89 138.55C94.42 138.55 99.95 138.55 105.48 138.55V138.56ZM46.48 138.8C51.96 138.8 57.45 138.8 62.93 138.8C63.77 138.8 64.49 138.76 64.5 137.64C64.53 133.06 64.45 128.48 64.73 123.9C64.82 122.38 64.24 121.91 62.72 121.91C51.84 121.91 40.95 121.91 30.07 121.89C28.9 121.89 28.48 122.29 28.49 123.46C28.53 128.04 28.54 132.63 28.49 137.21C28.48 138.44 28.91 138.84 30.14 138.83C35.58 138.78 41.02 138.81 46.46 138.81L46.48 138.8ZM164.5 121.9C159.1 121.9 153.7 121.9 148.3 121.9C146.74 121.9 146.63 122.02 146.62 123.6C146.62 127.89 146.62 132.17 146.62 136.46C146.62 138.65 146.74 138.79 148.94 138.79C159.57 138.8 170.2 138.79 180.82 138.82C182.03 138.82 182.37 138.38 182.36 137.23C182.32 132.69 182.35 128.14 182.34 123.6C182.34 121.95 182.28 121.9 180.56 121.9C175.2 121.9 169.85 121.9 164.49 121.9H164.5ZM80.71 112.41C80.71 104.31 80.71 96.2 80.71 88.1C80.71 87.8 80.71 87.5 80.71 87.2C80.69 86.29 80.28 86.15 79.58 86.65C78.42 87.46 77.25 88.26 76.11 89.1C74.8 90.06 73.44 90.99 72.37 92.22C71.14 93.64 71.01 95.4 71.01 97.19C71.01 110.7 71.01 124.21 71.01 137.71C71.01 139.3 71.19 139.44 72.81 139.31C74.9 139.14 76.99 138.97 79.08 138.85C80.63 138.76 80.72 138.71 80.72 137.11C80.72 128.88 80.72 120.64 80.72 112.41H80.71ZM130.68 112.52H130.71C130.71 120.62 130.71 128.72 130.71 136.83C130.71 138.4 130.87 138.55 132.39 138.56C134.45 138.57 136.51 138.51 138.56 138.58C139.82 138.63 140.2 138.12 140.17 136.92C140.1 134.65 140.15 132.38 140.15 130.1C140.15 118.78 140.15 107.46 140.15 96.15C140.15 94.61 140.01 93.08 138.71 92.05C136.66 90.43 134.59 88.83 132.29 87.56C130.76 86.72 130.68 86.77 130.68 88.48C130.68 96.5 130.68 104.51 130.68 112.53V112.52ZM144.93 82.84C144.93 82.84 144.93 82.81 144.93 82.79C143.09 82.79 141.24 82.79 139.4 82.79C138.99 82.79 138.46 82.65 138.27 83.17C138.07 83.71 138.52 84.03 138.89 84.33C139.29 84.66 139.7 84.96 140.12 85.27C145.19 89.02 150.4 92.55 155.64 96.05C164.16 101.74 172.65 107.48 181.15 113.2C181.43 113.39 181.73 113.7 182.07 113.56C182.53 113.38 182.34 112.89 182.35 112.53C182.37 110.09 182.27 107.64 182.39 105.2C182.48 103.22 181.73 101.88 180.12 100.78C172.75 95.77 165.42 90.69 158.05 85.68C155.92 84.23 153.68 82.91 150.99 82.85C148.98 82.8 146.96 82.85 144.95 82.85L144.93 82.84ZM66.1 82.79C64.34 82.79 62.59 82.76 60.83 82.79C58.79 82.83 56.86 83.25 55.09 84.37C51.11 86.9 47.18 89.5 43.31 92.18C39.05 95.13 34.74 98.01 30.46 100.94C29.5 101.6 28.62 102.3 28.51 103.64C28.28 106.38 28.22 109.11 28.25 111.86C28.25 112.4 28.07 113.07 28.64 113.4C29.29 113.78 29.76 113.2 30.24 112.88C38.39 107.34 46.54 101.8 54.69 96.26C60.61 92.24 66.59 88.31 72.39 84.11C72.72 83.87 73.24 83.67 73.05 83.14C72.9 82.71 72.4 82.79 72.03 82.79C70.06 82.79 68.09 82.79 66.12 82.79H66.1ZM105.24 115.38V115.4C110.94 115.4 116.64 115.39 122.34 115.41C123.35 115.41 123.98 115.22 123.95 114.01C123.9 111.7 123.93 109.38 123.95 107.07C123.95 106.24 123.59 105.89 122.78 105.96C121.97 106.03 121.16 106.15 120.35 106.15C109.55 106.15 98.75 106.16 87.95 106.1C86.94 106.1 86.67 106.4 86.68 107.31C86.71 109.45 86.68 111.6 86.69 113.74C86.69 115.31 86.77 115.38 88.39 115.38C94 115.38 99.62 115.38 105.23 115.38H105.24ZM110.3 44.74C110.3 40.28 110.3 35.82 110.3 31.36C110.3 28.03 109.86 27.66 106.55 26.48C103.79 25.5 100.55 27.59 100.57 30.89C100.63 40.28 100.58 49.67 100.55 59.06C100.55 60 100.9 60.36 101.85 60.34C104.12 60.3 106.4 60.25 108.67 60.34C110.01 60.39 110.34 59.88 110.32 58.62C110.26 53.99 110.29 49.36 110.29 44.73L110.3 44.74ZM51.35 115.4C55.25 115.4 59.15 115.38 63.05 115.41C64.06 115.41 64.55 115.09 64.53 114.01C64.49 111.83 64.48 109.64 64.53 107.46C64.56 106.26 64.05 105.83 62.91 105.95C59.84 106.27 56.75 106.2 53.67 106.15C52.33 106.13 51.15 106.48 50.02 107.15C46.37 109.32 42.84 111.67 39.42 114.17C39.08 114.42 38.4 114.6 38.62 115.16C38.79 115.61 39.39 115.4 39.79 115.4C43.65 115.41 47.5 115.4 51.36 115.4H51.35ZM159.9 115.38V115.4C163.75 115.4 167.61 115.4 171.46 115.4C171.78 115.4 172.23 115.54 172.33 115.1C172.41 114.76 172 114.64 171.77 114.47C168.39 111.91 164.79 109.67 161.24 107.36C159.91 106.5 158.47 106.13 156.86 106.15C153.91 106.18 150.95 106.33 148 106.04C146.95 105.94 146.63 106.51 146.63 107.42C146.63 109.43 146.63 111.45 146.63 113.46C146.65 115.15 146.88 115.39 148.58 115.39C152.35 115.41 156.12 115.39 159.89 115.39L159.9 115.38ZM83.88 60.31C83.88 60.31 83.88 60.32 83.88 60.33C86.19 60.33 88.51 60.33 90.82 60.33C91.11 60.33 91.48 60.37 91.6 60.03C91.72 59.68 91.39 59.49 91.16 59.32C90.6 58.92 90.03 58.55 89.46 58.17C84.53 54.76 79.61 51.34 74.67 47.94C73.04 46.82 72.95 46.86 71.28 48.04C69.39 49.37 67.49 50.69 65.58 51.99C64.49 52.73 64.46 52.91 65.6 53.67C68.23 55.44 70.89 57.16 73.52 58.93C74.99 59.93 76.57 60.39 78.36 60.32C80.2 60.25 82.04 60.3 83.88 60.3V60.31ZM126.28 60.33V60.31C128.08 60.31 129.88 60.34 131.68 60.31C133.63 60.28 135.57 60.02 137.27 59.05C140.07 57.47 142.6 55.47 145.21 53.61C145.91 53.11 145.76 52.68 145.1 52.23C143.57 51.2 142.03 50.19 140.56 49.08C138.68 47.67 136.9 47.85 134.96 48.99C129.75 52.06 124.95 55.74 119.91 59.06C119.59 59.27 119.16 59.51 119.27 59.93C119.41 60.49 119.97 60.31 120.36 60.31C122.33 60.33 124.3 60.31 126.27 60.31L126.28 60.33ZM94.1 43.15C94.1 40.11 94.1 37.06 94.1 34.02C94.1 33.69 94.19 33.28 93.86 33.07C93.43 32.79 93.15 33.2 92.85 33.41C88.66 36.24 84.47 39.07 80.28 41.91C78.79 42.92 78.75 43.15 80.2 44.15C84.4 47.05 88.62 49.91 92.84 52.77C93.14 52.98 93.46 53.36 93.86 53.1C94.23 52.86 94.09 52.4 94.09 52.02C94.09 49.06 94.09 46.1 94.09 43.15H94.1ZM116.76 43.01C116.76 45.96 116.76 48.92 116.76 51.87C116.76 52.32 116.56 52.9 117.1 53.14C117.53 53.33 117.89 52.91 118.23 52.67C122.44 49.81 126.65 46.93 130.85 44.06C131.85 43.38 131.85 43.08 130.84 42.39C128.4 40.72 125.95 39.07 123.51 37.41C121.63 36.14 119.76 34.86 117.87 33.6C117.59 33.41 117.26 33.17 116.92 33.34C116.51 33.54 116.75 33.95 116.75 34.27C116.75 37.18 116.75 40.09 116.75 43.01H116.76ZM174.03 82.78C171.63 82.78 169.23 82.78 166.84 82.78C166.52 82.78 166.09 82.68 165.97 83.12C165.87 83.46 166.19 83.66 166.43 83.82C171.38 87.05 176.33 90.28 181.28 93.5C182.15 94.07 182.37 93.66 182.37 92.79C182.35 89.88 182.34 86.97 182.37 84.05C182.38 83.12 182.05 82.75 181.1 82.76C178.75 82.8 176.39 82.77 174.03 82.78ZM36.82 82.78C34.6 82.78 32.37 82.84 30.15 82.75C28.82 82.69 28.45 83.19 28.49 84.46C28.57 86.98 28.5 89.51 28.53 92.03C28.53 92.59 28.26 93.35 28.93 93.65C29.55 93.93 30.03 93.34 30.53 93.04C30.6 93 30.67 92.95 30.74 92.9C35.18 89.63 39.59 86.3 44.44 83.63C44.66 83.51 44.98 83.39 44.9 83.09C44.8 82.73 44.42 82.79 44.13 82.79C41.69 82.79 39.25 82.79 36.81 82.79L36.82 82.78ZM59.04 60.26C59.04 60.26 59.04 60.29 59.04 60.31C60.2 60.31 61.35 60.31 62.51 60.31C62.76 60.31 63.06 60.35 63.2 60.08C63.36 59.78 63.07 59.63 62.89 59.46C59.99 56.66 58.74 56.57 55.49 58.92C55.16 59.16 54.61 59.33 54.72 59.84C54.84 60.38 55.41 60.24 55.82 60.25C56.89 60.28 57.96 60.25 59.03 60.25L59.04 60.26ZM151.87 60.29C152.98 60.29 154.09 60.32 155.2 60.28C155.68 60.26 156.26 60.14 155.79 59.44C154.75 57.87 152.09 57.16 150.4 58.01C149.75 58.33 149.15 58.75 148.54 59.13C148.23 59.33 147.75 59.48 147.9 59.96C148.02 60.34 148.46 60.29 148.8 60.29C149.82 60.3 150.85 60.29 151.87 60.29Z" fill="#F9B233"/>
</svg>
